<?xml version="1.0" standalone="no"?>
<!DOCTYPE svg PUBLIC "-//W3C//DTD SVG 20010904//EN"
 "http://www.w3.org/TR/2001/REC-SVG-20010904/DTD/svg10.dtd">
<svg version="1.0" xmlns="http://www.w3.org/2000/svg"
 viewBox="0 0 2600.000000 2600.000000"
 preserveAspectRatio="xMidYMid meet">
<metadata>
Created by potrace 1.15, written by Peter Selinger 2001-2017
</metadata>
<g transform="translate(0.000000,2600.000000) scale(0.100000,-0.100000)"
fill="#000000" stroke="none">
<path d="M13642 23599 c-180 -23 -384 -131 -610 -323 -161 -137 -218 -227
-272 -430 -41 -153 -57 -188 -134 -299 -125 -180 -176 -317 -206 -550 -33
-257 -32 -263 113 -398 113 -106 155 -173 143 -230 -4 -23 1 -36 24 -63 17
-18 30 -42 30 -53 0 -51 -58 -83 -151 -83 -113 0 -194 -50 -274 -170 -88 -133
-132 -148 -470 -161 -414 -16 -658 -61 -880 -163 -126 -58 -364 -206 -415
-258 -111 -112 -215 -398 -335 -913 -57 -249 -70 -287 -166 -487 -49 -103 -98
-221 -109 -263 -62 -244 -43 -646 46 -945 40 -132 76 -191 170 -276 131 -119
155 -200 93 -322 -34 -68 -56 -88 -144 -127 -77 -34 -100 -56 -125 -123 -44
-118 -37 -211 30 -389 22 -59 54 -155 71 -213 36 -126 63 -178 107 -205 28
-17 32 -24 28 -53 -4 -28 -1 -34 25 -47 17 -9 29 -24 29 -35 0 -11 -21 -60
-46 -108 l-47 -89 17 -229 c9 -126 18 -252 20 -280 6 -69 29 -121 65 -142 17
-9 34 -24 38 -32 4 -8 9 -260 10 -560 2 -331 7 -564 13 -595 13 -63 42 -111
79 -133 l28 -16 -36 -18 c-87 -44 -69 32 -206 -880 l-124 -823 40 -47 39 -46
-800 -4578 c-440 -2517 -802 -4579 -805 -4582 -3 -3 -28 -15 -57 -26 l-52 -21
-57 -320 -56 -320 26 -23 c63 -54 217 -87 335 -72 78 10 172 36 180 49 3 5 13
144 22 309 l17 300 -31 40 c-18 22 -32 47 -32 56 0 9 54 315 120 679 66 364
123 677 127 696 l6 34 34 -72 c43 -91 132 -187 213 -230 231 -123 568 -147
777 -56 67 30 138 96 170 159 66 130 43 514 -46 768 -127 360 -123 348 -125
432 -2 147 41 223 197 352 165 137 180 180 125 356 -25 78 -24 82 53 173 74
88 84 133 73 315 -5 80 -9 195 -9 255 0 109 1 111 47 225 26 63 61 166 78 229
21 80 50 150 96 240 54 105 71 150 100 271 37 154 49 178 130 280 66 84 71 94
89 186 13 67 20 84 54 119 49 51 55 63 81 165 27 109 26 108 138 345 182 386
252 572 396 1050 90 297 122 395 209 620 35 94 99 276 141 405 119 362 154
465 206 595 60 149 140 315 140 289 0 -10 7 -102 15 -204 8 -102 15 -250 15
-330 0 -233 32 -598 85 -980 43 -312 48 -406 35 -683 -6 -139 -18 -333 -26
-432 -9 -99 -18 -331 -20 -515 -4 -291 -7 -347 -25 -429 -25 -110 -21 -158 15
-210 14 -20 26 -48 26 -62 0 -13 -21 -60 -46 -104 -77 -134 -114 -258 -168
-571 -19 -109 -67 -354 -106 -543 -83 -408 -85 -419 -105 -631 -20 -216 -38
-319 -73 -418 -36 -102 -78 -171 -167 -273 -103 -120 -100 -113 -97 -193 2
-86 -13 -139 -78 -261 -63 -120 -84 -186 -83 -265 1 -81 22 -138 75 -209 73
-97 77 -140 36 -385 -22 -135 -19 -183 17 -264 43 -95 209 -232 340 -281 58
-22 186 -41 275 -41 127 -1 253 -46 454 -164 273 -160 472 -213 836 -223 219
-6 283 4 396 58 160 76 240 235 189 378 -35 101 -93 144 -283 212 -241 87
-448 202 -679 376 -146 109 -246 203 -281 262 -25 42 -27 55 -27 156 0 104 2
114 33 177 55 112 123 175 296 273 71 40 126 94 149 145 18 39 21 68 22 220 2
156 6 196 38 365 71 372 121 546 257 910 213 567 252 745 251 1139 0 243 -2
237 74 366 87 149 111 268 130 640 18 347 22 368 115 720 78 293 94 400 135
920 14 173 41 443 60 600 48 400 62 534 85 865 11 160 27 391 36 515 24 336
11 662 -42 1025 -20 138 -16 258 12 306 19 33 23 34 90 39 l69 5 5 165 5 165
27 -60 c41 -92 93 -231 128 -344 39 -129 62 -156 125 -155 l47 1 -7 -121 c-5
-98 -3 -130 10 -171 12 -35 26 -191 50 -530 19 -264 35 -499 35 -522 l0 -42
55 -6 c50 -7 55 -9 55 -32 0 -14 137 -1760 305 -3880 168 -2121 305 -3872 305
-3893 0 -34 -3 -39 -29 -45 -28 -6 -30 -9 -35 -78 -4 -40 -7 -169 -9 -287 l-2
-214 65 -19 c85 -24 234 -26 314 -4 32 9 63 20 68 25 6 6 -6 114 -31 288 -53
358 -43 324 -91 324 -35 0 -40 3 -40 23 0 12 -126 1772 -280 3911 -154 2138
-280 3891 -280 3895 0 4 11 13 25 19 31 14 31 6 4 350 -12 149 -20 274 -17
277 2 3 26 -2 52 -11 46 -16 126 -15 182 1 19 6 22 1 28 -37 26 -162 127 -547
189 -718 79 -216 421 -1050 501 -1220 48 -102 100 -223 116 -271 127 -380 191
-1214 139 -1839 -18 -228 -40 -392 -94 -715 -68 -407 -80 -536 -71 -782 4
-122 3 -207 -3 -231 -7 -23 -28 -55 -57 -82 -62 -61 -71 -82 -83 -191 -6 -56
-23 -129 -41 -179 -33 -94 -36 -127 -18 -229 11 -67 11 -73 -15 -136 -32 -78
-34 -113 -7 -183 23 -61 26 -150 8 -292 -10 -81 -9 -106 5 -165 28 -126 49
-172 156 -340 27 -43 34 -68 46 -165 18 -147 36 -198 91 -259 76 -85 181 -121
349 -121 206 0 376 61 440 158 13 20 32 66 41 102 35 137 -20 324 -198 677
-135 267 -136 275 -89 388 38 90 54 210 55 403 l1 153 28 -33 c46 -54 132
-188 172 -267 54 -109 65 -174 65 -411 0 -232 11 -306 59 -395 l31 -58 0 -167
c0 -239 9 -263 162 -442 81 -94 118 -158 168 -283 101 -256 216 -366 445 -426
112 -30 297 -30 410 0 237 63 378 194 378 351 0 77 -24 142 -96 256 -35 55
-78 126 -97 159 -18 33 -69 120 -113 194 -43 74 -104 184 -134 245 -31 61 -81
149 -111 196 -83 129 -111 200 -79 200 8 0 22 9 33 21 27 30 21 85 -19 176
-19 43 -44 112 -57 153 -29 98 -43 124 -101 188 -55 61 -61 91 -29 144 28 46
25 76 -19 207 -74 216 -104 356 -195 926 -59 362 -200 1204 -275 1640 -44 251
-54 373 -48 573 7 258 37 356 176 591 61 102 93 198 165 491 30 124 112 423
181 665 312 1087 370 1427 364 2130 -5 540 -9 477 28 523 59 73 56 170 -13
411 -19 68 -53 208 -75 310 -52 242 -96 415 -174 686 -74 258 -92 344 -105
485 -11 134 1 282 41 470 17 80 33 160 36 178 7 40 15 33 43 -38 48 -123 52
-153 60 -475 10 -380 19 -422 180 -855 92 -248 175 -526 213 -717 31 -154 57
-203 115 -221 46 -15 46 -13 33 -116 -18 -146 50 -308 214 -511 40 -49 85
-115 101 -145 27 -52 29 -62 29 -175 0 -98 -5 -133 -24 -193 -25 -79 -23 -115
10 -132 16 -9 27 -7 53 10 19 11 39 27 45 34 11 13 17 12 47 0 46 -19 66 -12
104 37 25 31 36 38 54 33 40 -10 71 42 122 204 26 81 60 174 76 207 40 86 43
114 23 246 -16 101 -16 127 -6 194 21 125 11 146 -135 295 -67 69 -128 139
-137 155 -37 73 -46 249 -27 505 11 152 -2 436 -31 633 -27 187 -64 326 -149
562 -145 401 -161 476 -161 725 1 265 -17 851 -29 975 -6 61 -26 209 -45 330
-19 121 -39 283 -45 360 -14 192 -35 303 -77 415 -41 107 -51 180 -33 234 6
20 43 78 81 129 38 50 75 112 84 136 28 81 16 223 -26 303 -6 13 -45 74 -87
136 -93 138 -99 171 -57 302 55 173 44 241 -61 396 -36 53 -78 121 -92 152
-24 53 -25 60 -19 199 7 170 0 199 -73 323 -27 46 -66 125 -86 174 -105 265
-333 467 -629 559 -126 39 -200 50 -335 49 -297 -1 -468 -98 -664 -377 -130
-184 -146 -227 -171 -465 -24 -236 -33 -259 -160 -426 -35 -45 -72 -107 -84
-139 -39 -105 -39 -157 5 -395 25 -142 20 -157 -100 -275 -115 -112 -143 -162
-133 -237 2 -24 8 -50 12 -60 10 -25 -26 -32 -140 -28 -230 10 -323 4 -450
-29 -66 -17 -148 -45 -183 -62 -85 -42 -196 -131 -261 -212 -30 -37 -56 -65
-59 -62 -2 2 1 92 8 200 6 108 8 215 5 238 -15 92 -93 205 -234 340 -129 123
-279 228 -599 421 l-112 67 20 30 c12 16 58 75 104 133 93 116 139 191 155
253 6 23 15 115 19 206 10 190 22 224 84 242 49 14 64 29 77 78 28 105 81 528
81 643 0 68 6 79 72 122 86 59 102 120 84 332 -7 82 -5 107 13 177 30 116 28
187 -7 254 -53 102 -153 152 -342 173 -130 15 -157 26 -236 97 -171 155 -303
219 -484 234 -115 9 -153 20 -230 66 -102 62 -200 83 -318 68z m2056 -5839 c3
-57 -3 -132 -18 -225 -31 -202 -49 -597 -51 -1095 0 -385 -2 -428 -14 -375 -7
33 -38 125 -68 205 -77 205 -81 230 -57 340 26 118 26 134 -12 280 l-32 125
-6 390 c-3 215 -5 390 -5 390 0 1 54 19 120 41 142 47 137 49 143 -76z"/>
</g>
</svg>
