<?xml version="1.0" standalone="no"?>
<!DOCTYPE svg PUBLIC "-//W3C//DTD SVG 20010904//EN"
 "http://www.w3.org/TR/2001/REC-SVG-20010904/DTD/svg10.dtd">
<svg version="1.0" xmlns="http://www.w3.org/2000/svg"
 viewBox="0 0 2600.000000 2600.000000"
 preserveAspectRatio="xMidYMid meet">
<metadata>
Created by potrace 1.15, written by Peter Selinger 2001-2017
</metadata>
<g transform="translate(0.000000,2600.000000) scale(0.100000,-0.100000)"
fill="#000000" stroke="none">
<path d="M15465 22990 c-260 -53 -438 -170 -545 -355 -15 -27 -51 -106 -80
-173 -28 -68 -86 -199 -129 -290 -83 -176 -113 -259 -130 -356 -18 -98 -13
-142 28 -264 l39 -117 5 -225 c6 -251 22 -367 68 -504 63 -190 171 -347 332
-485 l87 -75 -29 -12 c-41 -17 -130 -109 -249 -257 -57 -70 -114 -134 -127
-143 -13 -9 -57 -20 -97 -26 -315 -43 -586 -131 -757 -247 -214 -146 -398
-448 -453 -747 l-12 -64 -115 113 c-117 115 -191 175 -291 239 -150 94 -349
187 -535 248 -55 18 -103 36 -108 40 -14 12 37 73 112 134 78 63 103 103 116
186 14 86 36 111 110 125 108 19 176 99 225 265 13 41 49 127 82 190 74 144
87 203 68 302 -26 141 -25 188 8 264 41 93 53 145 46 185 -11 53 -48 129 -93
188 -60 80 -77 123 -101 251 -33 179 -62 258 -126 337 -27 32 -52 49 -116 75
-98 40 -124 68 -178 193 -65 147 -114 179 -305 196 -138 12 -151 15 -229 62
-100 59 -152 62 -271 11 l-90 -39 -200 0 c-196 0 -201 -1 -257 -27 -104 -48
-198 -156 -198 -227 0 -42 -38 -68 -108 -76 -98 -11 -113 -16 -155 -54 -51
-46 -64 -78 -77 -191 -11 -100 -24 -132 -77 -198 -48 -58 -63 -115 -56 -200 6
-75 -7 -114 -78 -227 -18 -27 -47 -90 -64 -140 -79 -220 -70 -386 31 -532 38
-55 57 -115 48 -146 -12 -40 7 -90 52 -133 53 -52 56 -77 19 -164 -30 -72 -31
-80 -5 -113 18 -23 19 -31 9 -72 -6 -25 -15 -48 -20 -51 -5 -3 -51 35 -102 83
-109 102 -169 138 -267 159 -178 37 -403 -59 -670 -286 -30 -25 -93 -75 -140
-110 -47 -34 -102 -79 -124 -99 -84 -78 -270 -399 -301 -519 -18 -70 -9 -107
30 -122 21 -8 24 -14 19 -42 -10 -59 -25 -101 -81 -228 -39 -89 -73 -193 -118
-365 -129 -486 -274 -975 -361 -1215 -30 -85 -86 -261 -124 -390 -97 -332
-192 -608 -295 -855 -29 -68 -38 -105 -39 -150 -1 -86 23 -120 145 -201 113
-74 166 -123 175 -160 4 -14 3 -56 -2 -93 -13 -95 -10 -559 5 -741 28 -346 63
-654 116 -1000 30 -201 57 -374 60 -386 2 -12 9 -54 15 -93 13 -93 -1 -127
-99 -236 -129 -143 -169 -227 -156 -322 15 -103 65 -355 75 -373 14 -26 107
-95 154 -115 35 -15 41 -15 82 1 29 11 48 14 55 7 6 -6 5 -38 -1 -89 -6 -43
-94 -797 -196 -1674 -588 -5064 -716 -6156 -754 -6387 -22 -139 -40 -255 -40
-258 0 -2 30 -14 68 -25 176 -53 352 -37 352 33 0 12 -13 127 -30 256 l-30
234 50 466 c28 256 53 483 56 504 6 38 7 36 156 -215 184 -311 183 -308 274
-407 l75 -81 -50 -912 -51 -913 -62 -324 c-72 -373 -77 -335 55 -372 109 -31
300 -33 395 -5 34 10 64 22 67 25 2 4 -15 146 -37 316 l-41 310 44 898 c38
779 45 897 58 892 56 -22 559 -49 799 -44 l164 4 25 -95 c17 -66 23 -110 20
-145 -5 -48 -59 -189 -143 -375 -33 -74 -38 -94 -38 -160 0 -83 17 -129 60
-156 21 -15 28 -15 52 -3 15 7 30 15 35 17 4 2 7 -5 7 -16 0 -37 29 -55 81
-50 42 4 48 2 58 -18 14 -32 57 -41 93 -21 28 16 29 16 57 -15 28 -32 28 -32
77 -19 99 26 127 25 202 -8 113 -50 231 -35 303 38 57 57 63 92 53 336 -12
337 -4 455 31 455 7 0 32 -9 56 -19 24 -11 121 -38 214 -61 221 -53 248 -62
390 -130 165 -79 288 -123 500 -181 290 -79 425 -99 535 -79 79 14 141 48 169
94 27 43 26 72 -4 121 -18 29 -25 54 -25 93 0 106 -43 157 -177 206 -150 56
-420 213 -482 280 -23 24 -23 26 -5 26 37 0 1081 39 1204 45 351 17 726 50
860 75 64 12 71 6 64 -59 -10 -97 -34 -417 -34 -448 0 -28 4 -33 38 -43 60
-17 225 -24 262 -11 18 6 35 9 38 7 2 -3 9 -56 14 -118 l11 -113 -33 -52 c-35
-57 -48 -123 -35 -190 5 -28 20 -51 57 -85 l50 -47 20 -196 20 -196 -27 -287
c-14 -158 -28 -308 -31 -334 l-6 -47 59 -29 c96 -49 165 -65 257 -60 61 3 93
11 131 30 95 49 93 19 25 396 -32 182 -66 398 -75 479 -8 81 -17 160 -20 176
-4 25 -2 27 31 27 74 0 241 42 354 90 126 52 167 65 250 75 30 4 90 21 133 38
l78 30 57 -17 c118 -35 124 -36 217 -21 180 29 230 57 292 166 42 74 72 99
188 158 111 58 141 81 161 128 29 68 19 151 -53 408 -37 135 -44 214 -56 660
-20 748 -14 977 31 1094 8 22 10 19 16 -26 3 -28 23 -109 42 -180 20 -70 48
-168 62 -218 19 -71 26 -126 32 -260 7 -141 13 -186 35 -260 55 -185 72 -286
100 -605 33 -373 75 -585 190 -964 76 -253 112 -344 167 -427 51 -77 90 -106
182 -134 145 -47 346 -55 689 -29 313 23 385 10 664 -120 493 -230 951 -262
1153 -80 54 49 90 125 90 189 0 146 -84 242 -331 375 -100 54 -190 136 -312
285 -124 151 -165 217 -252 406 -41 90 -104 215 -139 279 -35 63 -78 144 -96
180 -18 36 -63 117 -101 180 -37 63 -73 135 -78 160 -6 29 -7 116 -1 250 32
698 -7 1046 -320 2915 -116 695 -147 904 -221 1490 -71 573 -76 669 -39 845
30 146 30 239 -3 445 -29 182 -47 434 -47 652 1 191 8 229 52 268 76 66 73 40
70 504 -3 490 -11 604 -57 902 -41 271 -58 465 -50 579 4 47 23 195 42 330 46
315 50 497 14 665 -35 165 -91 354 -181 615 -121 347 -124 360 -124 530 -1
182 30 457 53 470 9 4 45 16 81 25 100 27 208 81 229 116 17 27 18 66 15 581
-6 1110 -34 1487 -140 1837 -91 299 -217 516 -418 716 -125 125 -208 183 -441
310 -282 154 -446 279 -495 375 -12 24 -33 85 -47 135 -13 49 -30 99 -37 110
-10 15 -38 25 -102 38 -100 21 -141 42 -166 85 -41 70 -62 258 -38 344 8 28
22 44 59 66 62 38 68 62 41 156 -26 95 -22 106 85 217 71 74 86 96 100 144 19
64 16 92 -20 205 -36 115 -37 138 -15 285 22 151 24 231 10 380 -37 378 -202
613 -508 725 -168 61 -388 77 -567 40z m-1471 -10987 c8 -160 24 -295 40 -342
17 -48 50 -70 121 -79 l60 -7 7 -70 c4 -39 20 -155 35 -260 32 -228 35 -444 8
-655 -26 -203 -32 -935 -10 -1240 14 -201 31 -895 19 -845 -2 11 -74 677 -159
1480 -85 803 -163 1492 -172 1530 -32 141 -101 308 -170 418 -20 32 -22 41
-11 48 7 5 18 9 23 9 6 0 51 32 100 70 50 38 93 70 96 70 4 0 10 -57 13 -127z
m-545 -408 c17 -137 172 -1780 346 -3649 233 -2518 312 -3402 304 -3407 -13
-8 -177 -34 -309 -49 -47 -5 -218 -14 -380 -20 -162 -7 -484 -20 -715 -30
-231 -10 -420 -17 -420 -16 -1 0 2 100 6 221 7 219 17 308 64 545 14 69 63
361 110 650 46 289 114 694 150 901 77 447 87 513 215 1404 130 901 150 1084
150 1376 0 115 32 699 45 844 12 120 36 284 70 470 19 105 44 260 55 345 34
248 47 288 182 547 64 123 83 152 89 137 4 -10 21 -131 38 -269z m-4684 -60
c12 -241 39 -359 101 -441 24 -32 34 -55 34 -82 1 -65 -352 -6396 -357 -6412
-3 -8 -108 190 -233 441 l-228 456 331 3096 c182 1703 335 3091 338 3084 4 -7
10 -70 14 -142z m459 -2595 c51 -587 53 -619 66 -866 11 -212 22 -288 61 -444
32 -124 54 -294 64 -490 15 -310 35 -495 95 -895 40 -264 48 -332 60 -555 20
-351 69 -646 201 -1193 22 -93 38 -172 34 -175 -11 -11 -648 -32 -777 -26
l-128 7 0 41 c0 68 249 5085 257 5166 l7 75 7 -65 c5 -36 28 -297 53 -580z
m5123 -1097 c-3 -10 -5 -4 -5 12 0 17 2 24 5 18 2 -7 2 -21 0 -30z m131 -585
c28 -114 79 -291 112 -393 78 -238 83 -264 120 -545 49 -383 67 -462 161 -721
93 -258 102 -333 79 -649 -6 -74 -12 -261 -13 -415 -4 -324 -4 -324 -110 -523
-55 -103 -62 -113 -65 -87 -2 17 -95 892 -208 1945 -112 1053 -204 1924 -203
1935 0 11 18 -61 38 -160 21 -99 61 -273 89 -387z"/>
</g>
</svg>
