<?xml version="1.0" standalone="no"?>
<!DOCTYPE svg PUBLIC "-//W3C//DTD SVG 20010904//EN"
 "http://www.w3.org/TR/2001/REC-SVG-20010904/DTD/svg10.dtd">
<svg version="1.0" xmlns="http://www.w3.org/2000/svg"
 viewBox="0 0 2600.000000 2600.000000"
 preserveAspectRatio="xMidYMid meet">
<metadata>
Created by potrace 1.15, written by Peter Selinger 2001-2017
</metadata>
<g transform="translate(0.000000,2600.000000) scale(0.100000,-0.100000)"
fill="#000000" stroke="none">
<path d="M16285 21304 c-264 -48 -503 -172 -690 -359 -178 -177 -290 -374
-351 -620 -35 -140 -44 -360 -19 -506 138 -828 994 -1312 1769 -1000 410 165
704 524 793 968 24 121 23 357 -1 473 -60 285 -176 500 -375 693 -193 188
-425 306 -685 352 -110 19 -332 18 -441 -1z"/>
<path d="M16616 18289 c-226 -23 -464 -110 -661 -242 -194 -130 -215 -151
-1360 -1342 -520 -541 -813 -839 -824 -837 -9 2 -374 92 -811 200 l-795 197
-140 0 c-131 0 -144 -2 -197 -27 -150 -70 -242 -244 -242 -458 0 -89 2 -100
37 -172 59 -122 174 -216 364 -297 48 -21 546 -203 1105 -405 754 -271 1028
-366 1061 -366 55 0 175 30 248 63 34 15 281 194 630 457 l574 432 6 -49 c4
-26 12 -399 18 -828 6 -429 14 -844 17 -922 l6 -143 1464 0 c1063 0 1464 3
1464 11 0 6 -79 745 -175 1643 -124 1162 -183 1676 -204 1786 -155 810 -647
1272 -1386 1304 -60 2 -150 0 -199 -5z"/>
<path d="M7545 16675 c-174 -39 -288 -118 -350 -243 -75 -151 -64 -373 25
-512 96 -150 268 -247 537 -304 112 -24 2549 -699 2560 -709 2 -3 -55 -144
-127 -314 -203 -474 -440 -1061 -593 -1468 l-34 -90 -784 -6 c-863 -7 -3497
-62 -3759 -79 -381 -24 -511 -113 -582 -397 -32 -127 -32 -371 -1 -455 59
-156 175 -244 392 -298 42 -11 1759 -245 3816 -520 l3740 -502 585 26 c321 13
585 24 586 23 1 -1 -431 -245 -959 -542 -529 -297 -1023 -580 -1097 -629 -151
-101 -288 -229 -332 -312 -78 -145 -73 -287 17 -464 106 -210 275 -320 492
-320 149 0 337 50 528 140 55 26 1173 577 2485 1225 1312 648 2447 1208 2523
1246 152 75 221 122 314 216 125 128 215 294 270 501 33 125 38 320 10 421
-47 172 -103 267 -232 396 -184 184 -408 281 -765 331 -129 19 -842 20 -3398
8 l-1312 -7 5 29 c3 16 57 387 120 824 63 437 117 806 119 820 4 24 -2 27
-227 109 -378 136 -557 231 -696 371 -177 176 -261 392 -248 635 10 204 73
392 178 532 l38 51 -57 6 c-234 25 -3529 276 -3616 275 -61 0 -138 -7 -171
-14z"/>
<path d="M19231 13404 c-400 -67 -761 -334 -944 -699 -95 -188 -138 -372 -138
-585 0 -159 18 -274 66 -417 69 -207 158 -349 319 -508 200 -198 394 -302 676
-361 104 -22 350 -25 460 -5 267 47 515 178 705 370 100 102 143 158 205 265
213 372 233 812 54 1205 -81 176 -244 376 -409 499 -149 111 -375 206 -567
237 -114 18 -314 18 -427 -1z"/>
</g>
</svg>
