<?xml version="1.0" standalone="no"?>
<!DOCTYPE svg PUBLIC "-//W3C//DTD SVG 20010904//EN"
 "http://www.w3.org/TR/2001/REC-SVG-20010904/DTD/svg10.dtd">
<svg version="1.0" xmlns="http://www.w3.org/2000/svg"
 viewBox="0 0 2600.000000 2604.000000"
 preserveAspectRatio="xMidYMid meet">
<metadata>
Created by potrace 1.13, written by Peter Selinger 2001-2015
</metadata>
<g transform="translate(0.000000,2604.000000) scale(0.100000,-0.100000)"
fill="#000000" stroke="none">
<path d="M4271 23410 c-486 -24 -827 -105 -963 -228 -63 -57 -65 -70 -60 -304
l4 -208 1009 0 1009 0 -6 -27 c-37 -172 -111 -320 -209 -419 -166 -168 -351
-197 -793 -124 -215 35 -268 37 -355 10 -100 -31 -165 -82 -384 -302 -193
-193 -203 -205 -209 -249 -15 -110 39 -221 114 -235 102 -19 235 43 372 172
181 172 253 191 765 204 696 19 790 46 1064 306 112 106 372 383 410 436 l26
38 710 -3 710 -2 65 -32 c189 -93 344 -332 415 -637 50 -217 48 -138 52 -2128
l4 -1857 27 4 c15 3 88 12 162 20 699 77 1389 65 2035 -36 1590 -248 3034
-980 4168 -2113 1151 -1149 1897 -2627 2131 -4221 56 -381 77 -682 77 -1110 0
-428 -20 -710 -76 -1100 -78 -538 -233 -1126 -424 -1614 l-41 -105 0 -453 0
-453 404 0 c223 0 407 3 409 8 2 4 1 972 -2 2152 -3 1180 -5 2147 -4 2149 15
24 684 35 793 13 111 -23 145 -43 190 -114 49 -76 353 -686 590 -1183 326
-683 1240 -2634 1240 -2647 0 -3 -23 -19 -50 -37 -150 -98 -195 -346 -93 -521
60 -101 172 -183 318 -231 55 -19 92 -24 175 -24 130 0 174 19 271 114 60 60
159 208 159 237 0 7 19 19 43 27 23 8 814 281 1757 607 943 325 1716 593 1718
595 3 2 -236 634 -243 643 -2 2 -771 -277 -1710 -618 -939 -342 -1711 -617
-1715 -613 -4 4 -90 195 -190 423 -432 983 -949 2140 -1168 2616 -135 292
-413 855 -487 984 -196 342 -365 502 -560 530 -38 5 -285 10 -547 10 l-478 0
0 2635 0 2634 -69 86 c-253 315 -605 642 -839 778 -193 113 -481 210 -752 253
l-102 16 -98 77 c-439 340 -1257 582 -2255 666 -755 63 -1904 41 -2800 -56
-507 -54 -1022 -146 -1312 -234 l-22 -7 -4 1568 -3 1569 -22 98 c-72 312 -217
594 -430 832 -203 229 -471 410 -688 465 -73 19 -114 20 -764 20 -686 0 -687
0 -706 21 -68 75 -333 155 -644 193 -284 35 -800 51 -1119 36z m10988 -5690
c211 -43 386 -122 536 -242 50 -40 166 -149 260 -243 l169 -170 -1509 -3
-1509 -2 -36 26 c-167 122 -455 299 -637 392 -159 81 -287 135 -483 203 l-165
58 1638 0 c1598 1 1641 0 1736 -19z"/>
<path d="M8780 17474 c-278 -18 -393 -28 -570 -50 -2565 -316 -4770 -2023
-5728 -4434 -508 -1279 -632 -2687 -357 -4046 321 -1579 1172 -3002 2419
-4043 1084 -906 2415 -1466 3826 -1611 819 -83 1651 -24 2450 175 1037 258
2007 751 2826 1436 1927 1609 2859 4077 2478 6559 -228 1487 -927 2862 -1999
3935 -1194 1194 -2736 1911 -4430 2060 -167 15 -784 28 -915 19z m930 -558
c653 -67 1225 -204 1800 -431 1020 -404 1928 -1059 2629 -1899 814 -974 1328
-2153 1480 -3391 40 -323 46 -434 46 -840 -1 -427 -10 -568 -60 -925 -180
-1270 -729 -2452 -1592 -3430 -130 -147 -436 -452 -578 -576 -1395 -1216
-3191 -1787 -5025 -1598 -1352 139 -2617 692 -3655 1598 -141 123 -447 428
-578 576 -862 974 -1412 2160 -1592 3430 -51 362 -59 497 -59 935 0 440 10
594 60 945 227 1596 1046 3060 2294 4104 1038 869 2340 1403 3665 1506 77 5
158 12 180 14 108 10 840 -3 985 -18z"/>
<path d="M8750 16320 c-1488 -96 -2830 -700 -3870 -1740 -629 -629 -1107
-1383 -1403 -2215 -481 -1348 -456 -2850 69 -4183 785 -1990 2581 -3412 4694
-3716 308 -45 519 -59 855 -59 336 0 547 14 855 59 2227 321 4086 1875 4800
4014 363 1086 405 2239 123 3355 -390 1546 -1396 2877 -2786 3689 -757 442
-1601 706 -2512 786 -165 15 -661 20 -825 10z m240 -2645 l0 -1605 110 0 110
0 0 1605 c0 883 3 1605 8 1605 10 0 1434 -250 1449 -255 7 -2 -192 -561 -538
-1511 -302 -829 -547 -1510 -545 -1512 10 -9 190 -72 194 -67 3 3 251 680 551
1504 300 825 549 1501 552 1503 7 4 1288 -734 1289 -743 0 -3 -464 -558 -1031
-1233 -566 -676 -1027 -1232 -1022 -1236 92 -79 156 -131 158 -128 1 2 465
554 1030 1228 565 674 1031 1225 1035 1225 8 0 962 -1136 958 -1140 -2 -2
-624 -361 -1383 -800 -759 -438 -1384 -800 -1388 -804 -9 -9 82 -172 98 -178
6 -2 634 357 1395 796 l1385 800 14 -32 c22 -52 501 -1371 498 -1373 -1 -1
-708 -126 -1572 -278 -863 -152 -1575 -278 -1581 -280 -8 -3 -7 -31 6 -101 10
-52 20 -99 24 -102 3 -4 714 118 1579 270 864 153 1575 277 1580 277 4 0 7
-335 7 -745 0 -589 -3 -745 -12 -745 -7 0 -719 124 -1581 276 -862 152 -1571
273 -1574 270 -6 -6 -44 -199 -40 -202 1 -1 713 -127 1582 -279 869 -153 1581
-279 1582 -280 2 -1 -506 -1397 -511 -1402 -1 -1 -623 356 -1382 794 -758 438
-1386 798 -1394 800 -10 2 -31 -25 -62 -82 -27 -47 -48 -88 -48 -92 1 -5 623
-367 1383 -805 825 -476 1382 -803 1381 -811 -1 -8 -214 -267 -474 -576 -453
-540 -473 -562 -490 -544 -9 10 -464 551 -1010 1203 -546 652 -1004 1197
-1019 1212 l-26 27 -75 -64 c-41 -35 -76 -68 -77 -72 -1 -4 461 -559 1027
-1233 776 -924 1026 -1228 1017 -1236 -17 -16 -1265 -734 -1276 -734 -5 0 -13
12 -19 28 -92 258 -1084 2977 -1087 2980 -4 5 -177 -57 -189 -68 -4 -5 238
-684 539 -1510 300 -826 544 -1505 540 -1508 -5 -5 -1429 -261 -1457 -262 -5
0 -8 725 -8 1610 l0 1610 -105 0 -105 0 0 -1610 c0 -885 -3 -1610 -7 -1610
-16 0 -1430 252 -1449 258 -20 7 7 83 527 1512 302 828 545 1508 541 1511 -17
16 -185 70 -192 63 -4 -5 -252 -683 -551 -1506 -299 -824 -548 -1498 -552
-1498 -10 0 -1257 719 -1275 735 -11 10 181 245 1005 1226 560 668 1024 1221
1030 1230 11 14 1 26 -68 84 l-81 69 -27 -32 c-250 -306 -2038 -2428 -2043
-2425 -4 2 -215 252 -469 556 -254 303 -468 559 -476 568 -12 15 132 100 1369
814 761 439 1387 801 1392 806 4 4 -15 48 -44 98 l-53 91 -41 -24 c-22 -13
-639 -369 -1371 -791 -731 -422 -1340 -773 -1351 -780 -21 -14 -26 -3 -277
688 -140 386 -254 703 -253 705 2 1 705 126 1562 277 857 151 1568 277 1580
280 l21 5 -17 100 c-9 55 -19 102 -21 104 -3 3 -2662 -463 -3136 -549 l-33 -6
0 751 0 750 23 -5 c71 -17 3141 -554 3146 -550 6 6 41 199 37 203 -2 1 -707
126 -1567 278 -860 151 -1571 278 -1580 282 -14 6 21 109 237 701 140 382 256
696 258 698 2 3 628 -356 1391 -796 763 -440 1391 -799 1395 -796 9 6 100 162
100 172 0 5 -623 368 -1385 808 -762 440 -1384 805 -1383 811 4 14 941 1133
950 1133 4 1 467 -547 1028 -1216 562 -670 1027 -1222 1034 -1227 9 -6 36 10
90 55 42 35 76 66 76 70 0 3 -464 558 -1031 1233 -566 676 -1029 1229 -1027
1231 11 9 1291 745 1293 743 2 -2 249 -680 550 -1508 301 -828 549 -1506 550
-1508 3 -3 185 65 193 72 3 3 -242 683 -543 1511 -301 828 -546 1507 -544
1509 6 4 1419 254 1447 255 l22 1 0 -1605z"/>
<path d="M8925 11639 c-147 -19 -340 -85 -470 -161 -322 -189 -539 -494 -621
-873 -26 -122 -24 -360 4 -492 112 -523 504 -907 1029 -1009 118 -23 338 -23
456 0 529 103 918 488 1033 1021 12 57 17 126 17 240 0 172 -12 252 -60 400
-111 345 -378 637 -712 779 -210 90 -449 124 -676 95z"/>
<path d="M16013 6368 c4 -46 12 -297 18 -558 16 -627 10 -691 -100 -1220 -89
-421 -98 -549 -49 -649 50 -101 113 -90 243 42 171 175 422 599 613 1039 136
312 195 648 209 1181 l6 247 -473 0 -473 0 6 -82z"/>
<path d="M15706 6025 c-486 -169 -861 -545 -1029 -1030 -77 -224 -102 -397
-94 -658 8 -276 59 -477 182 -722 252 -502 710 -838 1285 -942 141 -25 417
-23 575 6 867 156 1477 916 1442 1796 -19 470 -196 872 -520 1182 -53 50 -138
120 -189 156 -97 66 -199 127 -214 127 -5 0 -20 -78 -33 -172 -27 -198 -79
-465 -114 -585 l-24 -81 49 -49 c70 -67 132 -157 177 -255 127 -272 102 -633
-61 -898 -97 -158 -232 -279 -403 -361 -143 -69 -248 -92 -410 -92 -207 0
-359 45 -521 152 -198 131 -331 309 -401 538 -25 81 -27 102 -27 268 -1 216
15 291 96 455 46 92 64 117 148 200 57 57 122 110 163 134 l67 39 -6 76 c-3
42 -9 226 -12 410 -5 208 -11 336 -17 338 -5 1 -54 -13 -109 -32z"/>
</g>
</svg>
