<?xml version="1.0" standalone="no"?>
<!DOCTYPE svg PUBLIC "-//W3C//DTD SVG 20010904//EN"
 "http://www.w3.org/TR/2001/REC-SVG-20010904/DTD/svg10.dtd">
<svg version="1.0" xmlns="http://www.w3.org/2000/svg"
 viewBox="0 0 2600.000000 2600.000000"
 preserveAspectRatio="xMidYMid meet">
<metadata>
Created by potrace 1.15, written by Peter Selinger 2001-2017
</metadata>
<g transform="translate(0.000000,2600.000000) scale(0.100000,-0.100000)"
fill="#000000" stroke="none">
<path d="M8120 18573 c-19 -2 -83 -13 -142 -24 -447 -83 -856 -313 -1233 -693
-352 -354 -621 -781 -838 -1331 -434 -1102 -516 -2609 -222 -4080 271 -1351
826 -2584 1763 -3915 l81 -115 -1822 -5 -1822 -5 -68 -33 c-145 -72 -210 -227
-160 -383 13 -41 32 -69 78 -115 103 -104 -149 -95 2340 -92 l2180 3 54 30
c108 60 166 160 165 285 -1 90 -20 127 -166 320 -1228 1623 -1851 2989 -2077
4556 -65 448 -85 733 -85 1199 0 568 35 927 139 1408 185 862 582 1591 1090
2002 567 458 1216 492 1805 95 429 -290 799 -789 1109 -1495 70 -160 111 -212
201 -254 75 -35 182 -36 255 -1 87 42 134 99 194 240 233 538 502 953 817
1260 139 135 201 186 334 272 264 172 516 250 805 251 407 1 786 -174 1136
-523 526 -526 882 -1362 1009 -2370 40 -320 45 -426 45 -895 -1 -490 -9 -633
-60 -1043 -171 -1349 -643 -2570 -1490 -3847 -183 -277 -329 -482 -562 -793
-104 -138 -183 -253 -194 -283 -59 -155 23 -341 176 -398 56 -21 58 -21 1298
-19 l1242 3 50 25 c67 33 130 99 153 163 10 29 266 957 567 2064 302 1107 550
2011 551 2010 2 -1 156 -909 344 -2017 311 -1838 344 -2020 371 -2077 98 -205
381 -235 524 -54 21 26 121 267 319 767 159 401 292 732 295 736 4 4 103 -308
220 -695 118 -386 222 -721 232 -744 24 -57 83 -119 143 -151 l51 -27 1152 -3
c1149 -2 1151 -2 1208 19 75 28 146 99 175 176 18 46 21 73 18 133 -7 126 -68
213 -188 269 l-55 26 -995 5 -994 5 -317 1036 c-194 637 -326 1054 -342 1082
-99 169 -345 198 -486 57 -52 -52 -24 14 -511 -1215 -42 -106 -48 -116 -54
-90 -3 17 -161 946 -351 2065 -417 2461 -380 2252 -409 2308 -31 61 -88 115
-151 144 -71 32 -191 32 -257 0 -57 -28 -121 -88 -146 -139 -11 -21 -335
-1197 -721 -2613 -386 -1416 -707 -2590 -712 -2607 l-11 -33 -733 0 -734 0 98
137 c991 1393 1592 2800 1815 4253 71 463 96 763 103 1250 7 508 -13 857 -72
1250 -202 1342 -780 2394 -1616 2936 -502 326 -1051 421 -1612 280 -672 -169
-1276 -680 -1744 -1474 -30 -51 -56 -92 -58 -90 -1 2 -39 64 -83 138 -170 286
-339 506 -562 731 -220 222 -386 352 -618 483 -229 130 -519 227 -780 261
-102 14 -357 18 -452 8z"/>
</g>
</svg>
