<?xml version="1.0" standalone="no"?>
<!DOCTYPE svg PUBLIC "-//W3C//DTD SVG 20010904//EN"
 "http://www.w3.org/TR/2001/REC-SVG-20010904/DTD/svg10.dtd">
<svg version="1.0" xmlns="http://www.w3.org/2000/svg"
 viewBox="0 0 2600.000000 2600.000000"
 preserveAspectRatio="xMidYMid meet">
<metadata>
Created by potrace 1.15, written by Peter Selinger 2001-2017
</metadata>
<g transform="translate(0.000000,2600.000000) scale(0.100000,-0.100000)"
fill="#000000" stroke="none">
<path d="M8125 20629 c-512 -47 -1047 -223 -1507 -496 -464 -274 -889 -658
-1238 -1118 -583 -768 -942 -1744 -1020 -2770 -14 -189 -15 -638 0 -815 30
-381 73 -626 192 -1110 162 -662 376 -1321 620 -1915 77 -187 198 -466 207
-477 4 -4 29 4 55 17 l49 25 1373 0 1372 0 11 33 c6 17 292 1011 636 2207 344
1196 631 2188 637 2204 37 94 147 149 245 124 59 -14 127 -78 142 -133 6 -22
142 -859 301 -1860 159 -1001 293 -1833 297 -1849 7 -25 46 89 236 690 126
395 238 739 249 763 24 50 88 96 147 106 96 16 205 -53 229 -145 6 -25 50
-353 97 -730 47 -377 87 -689 89 -695 1 -5 19 37 38 95 307 906 975 2824 993
2851 27 42 112 89 159 89 92 0 182 -67 204 -150 6 -25 102 -828 212 -1785 110
-957 203 -1757 206 -1777 l6 -38 3396 0 3397 0 49 113 c343 790 604 1574 795
2397 164 705 206 1308 136 1945 -152 1375 -790 2595 -1768 3380 -485 389
-1053 660 -1616 769 -264 52 -358 60 -656 60 -351 0 -526 -21 -859 -105 -508
-128 -1028 -383 -1501 -737 -376 -282 -813 -713 -1146 -1132 -259 -326 -517
-706 -759 -1119 -39 -67 -75 -119 -79 -115 -4 5 -65 106 -136 224 -280 469
-542 838 -879 1235 -148 174 -541 567 -702 702 -704 589 -1412 920 -2204 1028
-138 19 -561 28 -705 14z"/>
<path d="M9637 15365 c-3 -11 -243 -843 -532 -1850 -404 -1405 -532 -1839
-553 -1869 -15 -22 -47 -50 -71 -63 l-44 -23 -1439 0 c-1079 0 -1438 -3 -1438
-12 0 -6 32 -72 72 -147 658 -1250 1497 -2296 2573 -3207 1121 -948 2489
-1723 4165 -2359 394 -150 373 -149 745 -10 1024 382 1980 848 2830 1378 564
351 1157 798 1650 1242 249 224 659 642 906 925 373 427 758 960 1068 1478
176 294 381 672 381 702 0 7 -1099 10 -3412 10 l-3412 0 -43 21 c-49 24 -85
67 -101 119 -6 19 -84 670 -173 1445 -89 776 -165 1413 -168 1417 -3 4 -229
-642 -501 -1434 -272 -792 -504 -1454 -515 -1471 -11 -17 -37 -44 -58 -61 -51
-41 -143 -49 -204 -17 -57 29 -100 85 -113 145 -6 28 -47 341 -91 696 -43 355
-81 650 -83 655 -3 11 -22 -45 -284 -872 -119 -375 -177 -543 -196 -567 -80
-105 -252 -99 -330 11 -27 39 -36 93 -321 1877 -162 1010 -295 1842 -298 1849
-2 7 -6 3 -10 -8z"/>
</g>
</svg>
