<?xml version="1.0" standalone="no"?>
<!DOCTYPE svg PUBLIC "-//W3C//DTD SVG 20010904//EN"
 "http://www.w3.org/TR/2001/REC-SVG-20010904/DTD/svg10.dtd">
<svg version="1.0" xmlns="http://www.w3.org/2000/svg"
 viewBox="0 0 2600.000000 2600.000000"
 preserveAspectRatio="xMidYMid meet">
<metadata>
Created by potrace 1.15, written by Peter Selinger 2001-2017
</metadata>
<g transform="translate(0.000000,2600.000000) scale(0.100000,-0.100000)"
fill="#000000" stroke="none">
<path d="M8125 20629 c-1049 -97 -2047 -686 -2752 -1624 -583 -775 -935 -1737
-1013 -2760 -23 -310 -13 -755 25 -1075 87 -723 440 -1955 819 -2859 485
-1155 1113 -2164 1902 -3051 276 -311 712 -737 1049 -1025 1132 -969 2563
-1782 4253 -2415 367 -137 332 -139 829 51 2530 972 4415 2312 5728 4074 673
903 1188 1876 1588 3000 229 644 459 1492 541 1995 153 941 62 1912 -261 2785
-353 954 -966 1761 -1728 2274 -179 121 -296 188 -498 286 -656 318 -1363 424
-2056 310 -632 -105 -1246 -376 -1816 -803 -376 -282 -813 -713 -1146 -1132
-259 -326 -517 -706 -758 -1117 -39 -68 -73 -123 -75 -123 -2 0 -32 48 -66
108 -295 507 -595 935 -949 1352 -135 158 -532 559 -677 682 -704 601 -1432
944 -2234 1054 -138 18 -561 27 -705 13z m5255 -6729 l0 -920 920 0 920 0 0
-625 0 -625 -920 0 -920 0 0 -920 0 -920 -625 0 -625 0 0 920 0 920 -920 0
-920 0 0 625 0 625 920 0 920 0 0 920 0 920 625 0 625 0 0 -920z"/>
</g>
</svg>
