<?xml version="1.0" standalone="no"?>
<!DOCTYPE svg PUBLIC "-//W3C//DTD SVG 20010904//EN"
 "http://www.w3.org/TR/2001/REC-SVG-20010904/DTD/svg10.dtd">
<svg version="1.0" xmlns="http://www.w3.org/2000/svg"
 viewBox="0 0 2600.000000 2604.000000"
 preserveAspectRatio="xMidYMid meet">
<metadata>
Created by potrace 1.13, written by Peter Selinger 2001-2015
</metadata>
<g transform="translate(0.000000,2604.000000) scale(0.100000,-0.100000)"
fill="#000000" stroke="none">
<path d="M14187 23754 c-356 -55 -580 -218 -742 -542 -94 -189 -175 -515 -175
-707 l0 -40 -112 7 c-62 4 -113 6 -115 5 -1 -1 -29 -752 -63 -1667 -34 -916
-63 -1666 -63 -1667 -1 0 -46 20 -99 47 -445 218 -1206 305 -2003 229 -687
-65 -1485 -236 -2066 -443 -787 -280 -1281 -647 -1388 -1033 -10 -38 -35 -95
-56 -128 -109 -170 -229 -483 -279 -725 -52 -257 -50 -151 -53 -2363 l-4
-2077 48 30 c27 16 161 100 298 187 l250 158 3 88 c2 68 6 87 17 87 14 0 8058
-1445 8103 -1455 l22 -5 0 -1390 0 -1390 44 -58 c105 -137 214 -344 265 -500
18 -54 44 -182 66 -319 20 -125 37 -232 40 -238 2 -5 4 607 4 1361 l1 1371
1366 459 1366 459 35 115 c125 419 360 847 606 1107 281 297 782 578 1241 697
l91 23 5 2234 5 2234 37 75 c111 221 119 491 22 722 -36 88 -106 181 -159 215
-27 17 -45 36 -45 48 -1 37 161 2840 166 2873 l5 33 28 -38 c15 -21 50 -59 77
-84 62 -57 160 -97 524 -209 410 -128 527 -177 596 -252 21 -23 77 -92 124
-153 196 -256 299 -316 368 -215 21 31 23 43 20 115 -8 142 -103 333 -253 508
-91 105 -154 156 -317 251 -303 179 -343 203 -396 246 -80 65 -113 111 -119
162 -21 192 355 247 1069 157 l167 -21 34 21 c52 32 146 136 168 186 39 89 35
207 -13 355 -17 52 -61 154 -73 168 -5 6 -421 63 -600 81 -467 48 -865 48
-1049 1 -214 -54 -400 -227 -535 -496 -55 -107 -121 -285 -141 -376 l-13 -56
-51 4 c-28 2 -1419 54 -3091 115 -1672 60 -3055 112 -3072 115 -32 5 -33 6
-33 58 0 171 58 276 153 276 86 0 358 -87 671 -214 l139 -56 180 2 180 3 -53
58 c-132 144 -377 329 -517 391 -34 14 -111 38 -170 52 -281 67 -432 121 -447
159 -9 24 35 59 101 81 69 22 287 25 448 5 126 -15 423 -66 535 -91 l85 -19
45 22 c82 40 160 174 147 254 -14 87 -94 152 -228 188 -199 52 -493 105 -726
130 -173 19 -526 18 -646 -1z m6074 -4803 l62 -39 -39 -7 c-114 -20 -455 -92
-644 -136 -972 -224 -1889 -529 -2453 -816 -504 -257 -901 -580 -1062 -868
-16 -27 -49 -72 -75 -100 -190 -206 -328 -531 -393 -928 -21 -132 -21 -134
-24 -2094 -3 -1374 -7 -1963 -14 -1963 -6 0 -39 8 -74 17 l-63 17 -6 670 c-4
369 -8 1240 -9 1936 -2 1168 -1 1275 16 1390 65 455 204 779 433 1009 66 66
105 115 134 168 206 382 735 773 1415 1045 653 262 1658 544 2465 693 107 20
202 37 210 39 40 9 64 3 121 -33z m-7588 -457 c75 -22 135 -75 147 -129 5 -22
10 -400 10 -852 l0 -813 -22 -5 c-54 -13 -5229 -995 -5242 -995 -10 0 -17 14
-20 43 -29 214 -45 894 -27 1122 14 173 43 331 72 393 69 142 458 313 1190
522 870 248 2709 646 3304 715 72 8 146 17 165 19 19 2 109 3 200 1 121 -2
180 -8 223 -21z m7280 -974 c133 -20 207 -69 226 -150 7 -29 11 -333 11 -852
l0 -808 -22 -5 c-21 -5 -2302 -439 -3492 -665 -264 -50 -483 -87 -488 -82 -15
15 -58 302 -69 467 -33 491 79 890 320 1138 159 165 294 229 876 415 889 286
1701 484 2170 531 61 6 124 13 140 15 67 7 264 5 328 -4z m-6946 -2876 c-7 -7
-5310 -1074 -5315 -1069 -3 2 -1 32 4 67 l9 62 2650 526 2650 527 3 -55 c2
-30 1 -56 -1 -58z"/>
<path d="M20720 13205 c-816 -122 -1523 -1024 -1880 -2400 -109 -420 -176
-853 -210 -1357 -11 -162 -14 -772 -5 -881 3 -34 10 -127 15 -207 15 -203 45
-449 81 -663 250 -1486 924 -2606 1744 -2897 157 -55 262 -73 430 -73 168 0
273 18 430 73 915 325 1634 1668 1809 3380 41 403 47 1098 12 1470 -79 830
-261 1538 -552 2148 -92 192 -153 300 -270 477 -123 187 -203 285 -353 436
-164 164 -308 271 -486 359 -261 130 -508 173 -765 135z m707 -655 c139 -45
246 -113 382 -245 433 -418 765 -1275 896 -2315 48 -387 59 -575 59 -1035 1
-437 -6 -580 -45 -930 -102 -928 -369 -1746 -730 -2236 -129 -175 -318 -340
-475 -414 -139 -66 -320 -83 -469 -45 -576 147 -1070 1034 -1280 2295 -76 460
-100 767 -100 1320 0 456 6 571 46 930 104 943 381 1778 748 2253 172 221 383
382 571 432 116 32 282 27 397 -10z"/>
<path d="M7715 12881 c-745 -366 -1249 -768 -1425 -1136 -196 -409 -688 -2244
-1310 -4890 -56 -236 -105 -432 -110 -435 -8 -5 -1780 -71 -1872 -70 -46 0
-64 -18 -113 -111 -200 -382 9 -750 570 -1002 626 -281 1845 -450 3600 -498
l399 -11 521 -210 c1541 -623 2745 -1090 3265 -1266 268 -91 292 -93 640 -68
265 20 1001 83 1079 94 l55 7 38 190 c188 924 508 2399 723 3335 415 1805 713
2881 892 3223 89 169 489 436 805 538 l98 31 0 499 c0 303 -4 499 -9 499 -5 0
-1712 313 -3792 695 -2080 382 -3794 695 -3808 695 -14 0 -125 -49 -246 -109z
m2159 -4771 c1990 -384 3620 -701 3623 -703 2 -2 -162 -627 -365 -1388 l-368
-1384 -874 0 -875 0 -55 -26 c-86 -40 -120 -76 -170 -180 -25 -52 -45 -95 -46
-96 0 -2 -187 56 -415 128 -1323 418 -2316 717 -2684 810 -70 18 -169 34 -240
40 -263 21 -2081 241 -2093 254 -3 3 192 737 434 1631 l439 1626 35 -6 c19 -3
1663 -321 3654 -706z"/>
<path d="M6547 8468 c-284 -355 -319 -441 -318 -798 0 -102 7 -252 16 -334 14
-136 72 -506 80 -514 2 -2 -3 -25 -11 -50 -59 -194 -94 -467 -94 -732 0 -161
21 -444 35 -458 6 -6 606 -55 611 -49 3 3 0 56 -7 119 -18 160 -15 466 5 618
45 335 150 635 299 858 l55 83 -115 297 c-64 163 -117 299 -119 301 -2 2 -41
-29 -88 -68 -221 -188 -416 -485 -532 -811 -37 -105 -27 -50 12 67 61 183 133
319 227 431 l37 44 0 206 0 207 182 -3 c101 -2 205 -6 232 -10 l49 -7 54 -130
c91 -219 260 -597 387 -865 271 -569 496 -927 614 -977 30 -12 37 -12 59 2 37
25 53 74 53 167 0 273 -173 852 -496 1663 l-124 309 0 123 0 122 -52 15 c-240
69 -956 266 -965 266 -7 0 -46 -42 -86 -92z"/>
<path d="M7780 8026 c0 -2 46 -108 103 -236 l102 -232 78 -28 c138 -49 266
-147 377 -292 251 -324 390 -788 390 -1298 0 -260 -38 -520 -107 -733 -19 -60
-33 -111 -30 -113 10 -11 182 -53 189 -46 14 15 91 252 118 367 59 246 81 501
68 778 -43 918 -551 1684 -1210 1822 -76 16 -78 17 -78 11z"/>
<path d="M9681 7968 c82 -209 207 -465 317 -648 531 -886 1246 -1257 1949
-1009 344 122 671 394 957 799 79 112 170 259 164 266 -3 2 -83 21 -179 41
-162 33 -174 35 -184 18 -101 -170 -335 -417 -472 -498 -45 -27 -121 -63 -170
-80 -82 -29 -98 -31 -223 -32 -115 0 -145 3 -205 23 -307 102 -589 398 -810
851 -34 70 -56 103 -70 106 -35 8 -1084 215 -1090 215 -2 0 5 -24 16 -52z"/>
<path d="M17545 10710 l-1230 -647 0 -479 0 -478 1109 -583 c611 -320 1111
-581 1113 -579 6 5 -59 541 -65 548 -4 3 -472 250 -1040 549 l-1033 542 38 22
c21 12 522 275 1113 585 591 310 1080 568 1087 574 17 17 163 596 150 595 -7
-1 -565 -293 -1242 -649z"/>
<path d="M15048 10212 c-80 -59 -204 -183 -246 -244 l-33 -47 38 -24 c21 -13
144 -83 273 -157 129 -73 243 -139 252 -145 15 -10 -49 -49 -411 -251 l-429
-239 -76 -294 c-42 -162 -74 -296 -72 -298 2 -3 272 141 599 319 l595 322 6
51 c3 27 6 219 6 425 l0 375 -172 100 c-95 55 -193 112 -219 127 l-48 28 -63
-48z"/>
<path d="M15551 8824 c-123 -110 -301 -395 -350 -559 -68 -227 -79 -718 -29
-1277 l11 -127 -29 -34 c-207 -248 -334 -420 -363 -493 -83 -214 -78 -611 15
-1132 l26 -143 -31 -122 c-55 -225 -74 -385 -74 -642 -1 -330 33 -553 129
-845 102 -310 268 -587 473 -790 383 -377 859 -467 1306 -245 408 202 731 662
870 1240 57 237 69 349 70 635 0 273 -10 368 -61 599 -148 664 -551 1184
-1039 1340 -91 29 -185 48 -185 37 0 -7 176 -409 196 -447 9 -18 24 -29 48
-33 62 -12 190 -83 267 -149 263 -225 455 -648 521 -1147 16 -124 16 -487 -1
-615 -86 -676 -410 -1182 -826 -1290 -69 -18 -211 -20 -287 -4 -83 17 -226 90
-308 156 -270 218 -460 621 -532 1128 -20 139 -16 532 6 680 49 324 164 642
307 845 21 31 39 60 39 66 0 15 -220 578 -230 588 -11 11 -48 -19 -163 -132
-184 -180 -347 -438 -438 -693 -17 -49 -34 -87 -36 -85 -8 7 76 245 109 311
37 74 129 213 157 239 20 18 21 28 21 233 l0 213 228 -6 c125 -4 230 -9 234
-13 4 -3 49 -105 101 -226 302 -705 569 -1243 755 -1524 68 -102 161 -204 202
-221 100 -42 142 82 105 315 -52 338 -270 1000 -554 1688 l-61 147 0 695 0
695 -93 0 -92 0 -23 138 c-32 191 -64 318 -121 490 -52 155 -178 488 -203 536
l-14 27 -53 -47z"/>
<path d="M6836 4620 l-189 -5 43 -55 c68 -86 197 -211 289 -279 110 -81 280
-164 406 -198 88 -23 118 -26 260 -26 141 0 172 3 260 26 96 26 345 138 345
155 0 5 -45 32 -100 61 l-100 53 -63 -16 c-76 -19 -157 -20 -257 -2 -148 27
-282 101 -409 226 l-70 70 -113 -2 c-62 -1 -198 -5 -302 -8z"/>
</g>
</svg>
