<?xml version="1.0" standalone="no"?>
<!DOCTYPE svg PUBLIC "-//W3C//DTD SVG 20010904//EN"
 "http://www.w3.org/TR/2001/REC-SVG-20010904/DTD/svg10.dtd">
<svg version="1.0" xmlns="http://www.w3.org/2000/svg"
 viewBox="0 0 2600.000000 2604.000000"
 preserveAspectRatio="xMidYMid meet">
<metadata>
Created by potrace 1.13, written by Peter Selinger 2001-2015
</metadata>
<g transform="translate(0.000000,2604.000000) scale(0.100000,-0.100000)"
fill="#000000" stroke="none">
<path d="M5605 20445 c-140 -49 -152 -263 -20 -341 42 -24 734 -139 9363
-1550 5124 -838 9330 -1527 9347 -1530 l30 -7 -33 31 c-43 40 -62 89 -62 159
0 76 28 133 85 171 l44 29 -67 11 c-4522 742 -18607 3042 -18623 3042 -13 -1
-42 -7 -64 -15z"/>
<path d="M6911 19739 c0 -53 1 -55 60 -104 l59 -50 0 -532 c0 -292 4 -534 8
-537 8 -5 372 -66 393 -66 5 0 9 219 9 553 l0 553 60 29 c59 28 60 29 60 70
l0 41 -292 43 c-161 24 -308 46 -325 48 l-33 6 1 -54z"/>
<path d="M1787 19315 c-77 -27 -117 -87 -117 -172 1 -90 57 -170 138 -193 28
-8 18668 -3060 18689 -3060 2 0 -9 12 -27 26 -48 41 -64 80 -64 160 0 61 4 77
26 111 15 22 44 51 64 64 21 12 33 24 28 26 -22 6 -18667 3053 -18682 3053 -9
-1 -34 -7 -55 -15z"/>
<path d="M3090 18615 c0 -46 3 -50 60 -102 l60 -55 0 -3493 0 -3493 31 -26
c51 -43 98 -59 179 -60 78 -1 120 13 168 57 l22 20 0 3478 0 3478 63 33 c58
31 62 36 65 71 2 24 -1 39 -10 42 -7 2 -139 23 -293 45 -154 22 -295 43 -312
46 l-33 6 0 -47z"/>
<path d="M7030 15325 l0 -2724 30 -35 c44 -50 104 -70 189 -64 75 6 146 38
176 80 13 20 15 303 15 2720 l0 2698 -22 4 c-35 8 -344 46 -367 46 l-21 0 0
-2725z"/>
<path d="M20490 17492 l0 -97 85 -48 85 -48 0 -499 0 -498 36 -12 c49 -16 113
-76 135 -125 28 -61 25 -149 -7 -213 -20 -41 -37 -59 -78 -82 -28 -17 -59 -30
-68 -30 -17 0 -18 -198 -18 -4009 l0 -4009 48 -20 c74 -32 128 -41 233 -42
100 0 200 22 247 55 l22 16 0 4704 0 4703 80 33 80 34 0 78 c0 42 -2 77 -5 77
-7 0 -817 119 -847 124 l-28 6 0 -98z"/>
<path d="M24370 17374 c-78 -34 -114 -97 -108 -190 3 -52 9 -70 34 -100 82
-102 226 -102 308 0 56 68 45 198 -21 258 -51 46 -147 61 -213 32z"/>
<path d="M16670 16375 l0 -84 80 -61 80 -61 0 -4734 0 -4733 31 -26 c44 -37
159 -69 249 -70 94 0 166 17 224 55 l46 29 0 4712 1 4713 82 45 82 45 3 63 c2
43 -1 62 -9 62 -15 0 -826 118 -851 124 -16 4 -18 -5 -18 -79z"/>
<path d="M20545 16241 c-141 -64 -152 -254 -20 -336 185 -115 388 119 247 287
-33 39 -95 68 -147 68 -22 0 -58 -9 -80 -19z"/>
<path d="M7785 13390 l-260 -78 -5 -363 c-6 -408 -3 -396 -82 -463 -57 -49
-130 -70 -228 -64 -94 5 -167 42 -217 107 l-33 43 0 284 c0 156 -3 284 -6 284
-8 0 -3220 -959 -3250 -970 l-24 -10 0 -348 0 -349 -40 -45 c-60 -69 -121 -91
-234 -86 -109 5 -171 29 -233 91 l-43 41 0 269 c0 223 -2 268 -14 264 -10 -4
-1583 -475 -1740 -521 l-39 -11 693 -500 c381 -275 700 -504 709 -508 10 -5
1265 362 3633 1063 1990 588 3621 1070 3625 1070 16 1 -72 42 -980 456 -512
233 -940 424 -951 423 -12 0 -138 -36 -281 -79z"/>
<path d="M21598 8861 l-288 -86 0 -484 0 -484 -47 -47 c-67 -66 -147 -91 -299
-92 -166 -1 -287 35 -360 108 l-34 35 0 369 c0 204 -3 370 -6 370 -4 0 -687
-203 -1518 -451 -831 -248 -1526 -456 -1543 -461 l-33 -9 0 -473 0 -474 -33
-48 c-36 -52 -113 -106 -182 -126 -22 -7 -87 -12 -145 -12 -149 0 -232 26
-306 98 l-54 52 0 382 c0 210 -2 382 -5 382 -11 0 -2260 -672 -2271 -679 -7
-3 336 -256 763 -565 l775 -559 4000 1184 3999 1183 -33 17 c-18 9 -490 225
-1048 479 -558 254 -1022 466 -1030 470 -9 4 -134 -29 -302 -79z"/>
</g>
</svg>
