<?xml version="1.0" standalone="no"?>
<!DOCTYPE svg PUBLIC "-//W3C//DTD SVG 20010904//EN"
 "http://www.w3.org/TR/2001/REC-SVG-20010904/DTD/svg10.dtd">
<svg version="1.0" xmlns="http://www.w3.org/2000/svg"
 viewBox="0 0 2600.000000 2604.000000"
 preserveAspectRatio="xMidYMid meet">
<metadata>
Created by potrace 1.13, written by Peter Selinger 2001-2015
</metadata>
<g transform="translate(0.000000,2604.000000) scale(0.100000,-0.100000)"
fill="#000000" stroke="none">
<path d="M11565 23815 c-232 -38 -481 -118 -1145 -368 -482 -182 -700 -260
-1525 -552 -1241 -438 -1655 -593 -1766 -660 -65 -40 -148 -125 -177 -181 -11
-22 -28 -66 -38 -99 -20 -66 -21 -114 -16 -686 l2 -326 38 -42 c24 -28 67 -57
122 -84 l85 -42 227 -400 227 -400 1 -3218 c0 -2875 -2 -3226 -16 -3293 -76
-369 -433 -917 -1034 -1589 -177 -198 -254 -279 -600 -635 -172 -176 -324
-341 -345 -374 -122 -191 -219 -545 -275 -1006 -56 -462 -72 -968 -68 -2125
l3 -840 65 -32 c105 -53 175 -66 320 -61 90 3 141 10 182 25 l57 20 5 -41 c3
-23 20 -275 37 -560 29 -478 30 -520 15 -531 -12 -10 -16 -30 -16 -94 0 -87 6
-95 48 -65 42 29 54 70 63 218 13 215 29 1279 29 1949 0 565 1 598 18 593 9
-2 1849 -406 4087 -897 2239 -491 4071 -893 4072 -893 1 -1 5 -419 10 -931 l8
-930 50 -25 c48 -24 58 -25 233 -25 100 0 182 -2 182 -5 0 -3 29 -219 64 -480
85 -628 82 -598 62 -606 -13 -5 -16 -23 -16 -105 0 -108 5 -116 53 -79 58 46
57 -27 44 1975 l-8 1270 2608 1912 2608 1912 3 -550 2 -551 32 -44 c17 -24 49
-56 70 -71 74 -51 207 -42 308 22 l39 24 5 -52 c3 -29 17 -290 31 -582 14
-291 27 -549 29 -572 3 -40 2 -43 -20 -43 -24 0 -24 0 -24 -120 0 -66 2 -120
5 -120 4 0 19 7 34 15 39 20 78 69 91 113 21 77 11 323 -45 1134 -25 358 -25
358 -25 1931 0 1753 6 1606 -70 1758 -54 106 -152 250 -330 484 -399 524 -525
701 -665 936 -184 308 -287 557 -358 864 l-21 90 -3 3138 -3 3139 140 386 c88
242 147 390 158 396 9 5 38 29 63 53 87 81 141 218 161 408 14 133 4 196 -41
267 -75 118 -293 178 -600 165 -236 -11 -592 -47 -659 -68 -106 -32 -286 -118
-1062 -504 -410 -204 -835 -413 -945 -464 -693 -326 -1269 -552 -1640 -645
-299 -76 -159 -69 -1681 -73 l-1371 -4 -6 152 c-4 84 -7 306 -7 493 l0 341
223 286 c173 224 231 291 263 308 139 74 235 268 236 480 1 181 -44 292 -149
373 -112 85 -244 118 -493 124 -114 2 -193 -1 -255 -11z m-407 -2521 c-5 -3
-1639 173 -1643 178 -3 3 365 135 818 295 l822 291 3 -380 c1 -210 1 -382 0
-384z m7534 -6344 c56 -264 125 -454 266 -736 160 -318 368 -640 790 -1219
214 -293 330 -463 374 -547 l33 -63 0 -715 0 -714 -2600 -1918 -2600 -1918 -6
147 c-16 374 -21 1089 -10 1360 21 513 33 559 474 1828 399 1150 538 1651 588
2120 12 115 9 1106 -11 2990 -38 3633 -42 4209 -34 4212 5 2 617 320 1359 707
l1350 703 6 -3081 c5 -2764 7 -3089 21 -3156z m-8959 4676 c829 -118 1511
-216 1514 -220 7 -7 84 -2912 143 -5381 l10 -409 -28 -49 c-79 -139 -452 -486
-986 -916 -909 -731 -2287 -1725 -3016 -2175 -274 -169 -328 -204 -434 -279
-445 -314 -749 -665 -852 -982 l-23 -70 0 135 c-2 510 53 1020 136 1275 60
186 58 183 478 600 210 209 443 448 516 530 577 644 878 1125 992 1582 l21 88
3 3243 c2 1783 7 3242 11 3242 4 0 686 -97 1515 -214z m5674 -3483 l-3 -3448
-22 -152 c-96 -666 -321 -1395 -680 -2203 -108 -244 -136 -322 -181 -505 -125
-501 -202 -1272 -232 -2305 -7 -223 -13 -406 -14 -408 -3 -3 -7698 1684 -7733
1696 l-24 8 37 69 c94 179 223 345 414 535 183 182 358 320 655 517 410 272
853 591 1516 1092 564 425 1538 1179 2075 1604 l150 119 5 -919 5 -918 22 -41
c28 -53 83 -100 130 -113 21 -6 84 -16 141 -23 l102 -12 0 -71 c0 -38 5 -242
11 -453 11 -350 10 -384 -5 -401 -12 -13 -16 -37 -16 -94 0 -42 2 -77 5 -77
15 0 63 31 85 55 l25 26 13 572 12 572 -90 4258 c-50 2343 -90 4260 -88 4262
2 1 71 -3 153 -11 444 -38 1078 -77 1530 -94 629 -23 918 -6 1300 76 202 44
474 131 619 199 39 19 74 34 79 34 4 1 6 -1550 4 -3446z"/>
<path d="M11254 10929 c-438 -230 -648 -938 -457 -1543 61 -194 156 -349 291
-478 147 -139 312 -206 484 -195 367 24 672 381 759 888 18 106 21 150 16 304
-9 302 -75 526 -218 740 -51 76 -170 205 -189 205 -5 0 -10 -22 -10 -49 0 -44
6 -57 49 -115 88 -116 150 -273 189 -481 24 -130 23 -492 -2 -630 -90 -502
-364 -749 -596 -539 -242 219 -341 823 -214 1310 28 110 104 278 153 339 l32
40 -43 18 c-23 10 -57 29 -75 42 -33 26 -83 118 -83 154 0 28 -18 26 -86 -10z"/>
<path d="M20111 9176 c-76 -48 -184 -157 -247 -252 -392 -588 -319 -1595 149
-2031 253 -235 569 -226 822 25 164 162 276 392 342 702 25 115 27 144 28 365
0 257 -6 308 -56 503 -38 148 -105 305 -179 420 -57 89 -183 227 -228 251 -21
11 -22 10 -22 -26 0 -62 10 -81 54 -107 237 -139 390 -625 356 -1131 -36 -528
-253 -914 -503 -893 -212 18 -382 283 -459 718 -9 50 -13 159 -13 325 1 232 3
259 28 376 69 326 191 541 350 618 l49 24 -7 51 c-4 28 -8 52 -10 54 -1 1 -24
-7 -51 -19 -68 -30 -181 -37 -237 -15 -24 9 -56 30 -72 46 -16 17 -31 30 -35
30 -3 0 -30 -15 -59 -34z"/>
<path d="M5213 6811 c-155 -128 -285 -333 -361 -566 -178 -545 -55 -1198 292
-1549 161 -163 328 -239 526 -239 445 -1 814 442 891 1067 17 138 6 401 -21
531 -62 294 -177 523 -348 695 -82 82 -85 84 -92 60 -19 -61 -12 -90 35 -142
106 -118 191 -328 237 -588 20 -117 17 -549 -5 -667 -108 -570 -397 -831 -664
-599 -88 77 -174 234 -227 419 -52 179 -61 253 -61 527 0 274 9 348 61 527 71
245 189 424 319 484 l40 19 -50 -8 c-27 -4 -115 -7 -195 -7 -157 0 -214 12
-284 60 l-36 24 -57 -48z"/>
<path d="M14960 4673 c0 -16 3 -45 6 -65 5 -31 12 -39 40 -48 54 -18 141 -89
195 -159 171 -222 262 -597 238 -981 -34 -521 -278 -963 -535 -964 -242 0
-482 332 -566 781 -28 156 -31 431 -5 573 45 242 146 445 305 611 70 75 72 78
66 116 l-6 39 -132 -4 c-140 -5 -218 6 -281 38 l-37 19 -87 -87 c-270 -269
-406 -684 -379 -1157 36 -640 431 -1145 895 -1145 435 0 749 361 839 966 23
149 22 470 0 619 -62 402 -202 657 -453 825 -86 58 -103 61 -103 23z"/>
</g>
</svg>
